<svg width="31" height="10" viewBox="0 0 31 10" fill="none" xmlns="http://www.w3.org/2000/svg">
<path d="M1.788 4.4V0.62H0.96V9.5H1.788V8.06C2.184 8.912 3.084 9.596 4.392 9.596C6.18 9.596 7.512 8.264 7.512 6.212C7.512 4.16 6.192 2.852 4.392 2.852C3.108 2.852 2.196 3.536 1.788 4.4ZM6.66 6.212C6.66 7.868 5.604 8.864 4.224 8.864C2.892 8.864 1.788 7.856 1.788 6.224C1.788 4.592 2.892 3.584 4.224 3.584C5.604 3.584 6.66 4.544 6.66 6.212ZM8.97366 6.212C8.97366 8.264 10.3057 9.596 12.0937 9.596C13.4017 9.596 14.3137 8.888 14.6977 8.048V9.5H15.5377V2.948H14.6977V4.388C14.3257 3.56 13.4257 2.852 12.1057 2.852C10.3057 2.852 8.97366 4.16 8.97366 6.212ZM14.6977 6.224C14.6977 7.856 13.6057 8.864 12.2617 8.864C10.8817 8.864 9.82566 7.868 9.82566 6.212C9.82566 4.544 10.8817 3.584 12.2617 3.584C13.6057 3.584 14.6977 4.592 14.6977 6.224ZM17.3713 6.224C17.3713 8.3 18.7033 9.596 20.5513 9.596C22.1953 9.596 23.2633 8.672 23.5633 7.364H22.6633C22.4353 8.324 21.6553 8.888 20.5513 8.888C19.2673 8.888 18.2233 8 18.2233 6.224C18.2233 4.448 19.2673 3.572 20.5513 3.572C21.6553 3.572 22.4473 4.148 22.6633 5.084H23.5633C23.2633 3.728 22.1953 2.852 20.5513 2.852C18.7033 2.852 17.3713 4.148 17.3713 6.224ZM25.4147 9.5H26.2547V6.56L28.9547 9.5H30.0947L26.9627 6.212L30.0707 2.948H28.8947L26.2547 5.876V0.62H25.4147V9.5Z" fill="#AD1616"/>
</svg>
