<svg width="64" height="64" viewBox="0 0 64 64" fill="none" xmlns="http://www.w3.org/2000/svg">
<g clip-path="url(#clip0_327_136)">
<path d="M50.0498 60.0303C55.5616 60.0303 60.0298 55.5621 60.0298 50.0503C60.0298 44.5385 55.5616 40.0703 50.0498 40.0703C44.538 40.0703 40.0698 44.5385 40.0698 50.0503C40.0698 55.5621 44.538 60.0303 50.0498 60.0303Z" stroke="#B20B18" stroke-width="2" stroke-linecap="round" stroke-linejoin="round"/>
<path d="M44.6802 49.33L50.0502 45.04L55.4102 49.33" stroke="#B20B18" stroke-width="2" stroke-linecap="round" stroke-linejoin="round"/>
<path d="M48.7002 55.0599V50.9199H51.4002V55.0599" stroke="#B20B18" stroke-width="2" stroke-linecap="round" stroke-linejoin="round"/>
<path d="M46.1099 48.3701V55.0601H53.9799V48.3701" stroke="#B20B18" stroke-width="2" stroke-linecap="round" stroke-linejoin="round"/>
<path d="M47.2798 47.07V45.21" stroke="#B20B18" stroke-width="2" stroke-linecap="round" stroke-linejoin="round"/>
<path d="M18.5 31.5C25.9558 31.5 32 25.4558 32 18C32 10.5442 25.9558 4.5 18.5 4.5C11.0442 4.5 5 10.5442 5 18C5 25.4558 11.0442 31.5 18.5 31.5Z" fill="#F4D7D9"/>
<path d="M32.0001 40.0504C32.0001 40.0504 24.1801 39.4504 22.4401 31.4804C20.9201 31.0204 16.7301 23.5804 20.4401 23.3604C19.9001 19.0004 19.2201 8.40039 32.0001 8.40039H39.0001" stroke="#B20B18" stroke-width="2" stroke-linecap="round" stroke-linejoin="round"/>
<path d="M32 40.05C32 40.05 39.82 39.45 41.57 31.48C43.08 31.02 47.28 23.58 43.57 23.36C43.93 20.26 44.79 14.7 39.57 12.54" stroke="#B20B18" stroke-width="2" stroke-linecap="round" stroke-linejoin="round"/>
<path d="M20.29 44.5795C21.52 44.2195 22.29 44.0195 22.29 44.0195L24.29 40.0195L32 45.7495" stroke="#B20B18" stroke-width="2" stroke-linecap="round" stroke-linejoin="round"/>
<path d="M4.99999 58.5003C4.99999 58.5003 4.55999 53.9103 7.11999 50.5703" stroke="#B20B18" stroke-width="2" stroke-linecap="round" stroke-linejoin="round"/>
<path d="M40.62 41.7598L39.72 40.0498L32 45.7398L36.31 50.8898" stroke="#B20B18" stroke-width="2" stroke-linecap="round" stroke-linejoin="round"/>
<path d="M26.8398 14.7598C27.1083 15.3569 27.5439 15.8635 28.094 16.2184C28.6441 16.5733 29.2852 16.7613 29.9398 16.7598H35.3398C36.032 16.7671 36.7053 16.9855 37.27 17.3858C37.8347 17.7861 38.2637 18.3491 38.4998 18.9998V19.1298" stroke="#B20B18" stroke-width="2" stroke-linecap="round" stroke-linejoin="round"/>
<path d="M31.9998 45.7395L27.8198 51.5095L22.3198 44.0195" stroke="#B20B18" stroke-width="2" stroke-linecap="round" stroke-linejoin="round"/>
<path d="M29.6099 49.0404L32.1199 51.9904L34.6399 48.9004" stroke="#B20B18" stroke-width="2" stroke-linecap="round" stroke-linejoin="round"/>
<path d="M32.1198 51.9902L28.2598 58.5002" stroke="#B20B18" stroke-width="2" stroke-linecap="round" stroke-linejoin="round"/>
<path d="M32 51.9902L35.85 58.5002" stroke="#B20B18" stroke-width="2" stroke-linecap="round" stroke-linejoin="round"/>
<path d="M18.3 41.3597C18.3003 40.3282 18.0182 39.3162 17.4843 38.4336C16.9504 37.551 16.1851 36.8314 15.2713 36.3529C14.3575 35.8743 13.3301 35.655 12.3005 35.7188C11.271 35.7826 10.2785 36.1271 9.4308 36.7148C8.58309 37.3025 7.91245 38.1111 7.4916 39.0529C7.07076 39.9947 6.91577 41.0337 7.04345 42.0573C7.17112 43.0809 7.57659 44.05 8.21588 44.8596C8.85517 45.6691 9.70389 46.2882 10.67 46.6497V52.2197L11.88 53.4297L10.38 54.9297L13.75 58.2997C13.8451 58.3945 13.9661 58.459 14.0978 58.4851C14.2295 58.5112 14.366 58.4977 14.49 58.4464C14.6141 58.395 14.7201 58.3081 14.7949 58.1966C14.8696 58.0851 14.9097 57.954 14.91 57.8197V46.5397C15.9163 46.0978 16.7725 45.3728 17.3743 44.4532C17.9762 43.5335 18.2978 42.4588 18.3 41.3597Z" stroke="#B20B18" stroke-width="2" stroke-linecap="round" stroke-linejoin="round"/>
<path d="M29.5098 32.1602C31.1098 34.0002 33.2098 33.6502 34.7998 32.1602" stroke="#B20B18" stroke-width="2" stroke-linecap="round" stroke-linejoin="round"/>
</g>
<defs>
<clipPath id="clip0_327_136">
<rect width="64" height="64" fill="white"/>
</clipPath>
</defs>
</svg>
