<svg width="17" height="18" viewBox="0 0 17 18" fill="none" xmlns="http://www.w3.org/2000/svg">
<path d="M2.5 16H5.5V10H11.5V16H14.5V7L8.5 2.5L2.5 7V16ZM2.5 18C1.95 18 1.47933 17.8043 1.088 17.413C0.696 17.021 0.5 16.55 0.5 16V7C0.5 6.68333 0.571 6.38333 0.713 6.1C0.854333 5.81667 1.05 5.58333 1.3 5.4L7.3 0.9C7.48333 0.766667 7.675 0.666667 7.875 0.6C8.075 0.533333 8.28333 0.5 8.5 0.5C8.71667 0.5 8.925 0.533333 9.125 0.6C9.325 0.666667 9.51667 0.766667 9.7 0.9L15.7 5.4C15.95 5.58333 16.146 5.81667 16.288 6.1C16.4293 6.38333 16.5 6.68333 16.5 7V16C16.5 16.55 16.3043 17.021 15.913 17.413C15.521 17.8043 15.05 18 14.5 18H9.5V12H7.5V18H2.5Z" fill="#F8F8F8"/>
</svg>
