<svg width="19" height="19" viewBox="0 0 19 19" fill="none" xmlns="http://www.w3.org/2000/svg">
<path d="M13.0374 13.775C12.8541 13.5583 12.7624 13.3123 12.7624 13.037C12.7624 12.7623 12.8541 12.5333 13.0374 12.35L14.8874 10.5H7.7124C7.42907 10.5 7.19174 10.404 7.0004 10.212C6.8084 10.0207 6.7124 9.78333 6.7124 9.5C6.7124 9.21667 6.8084 8.979 7.0004 8.787C7.19174 8.59567 7.42907 8.5 7.7124 8.5H14.8874L13.0374 6.65C12.8374 6.45 12.7374 6.21267 12.7374 5.938C12.7374 5.66267 12.8374 5.425 13.0374 5.225C13.2207 5.025 13.4501 4.925 13.7254 4.925C14.0001 4.925 14.2291 5.01667 14.4124 5.2L18.0124 8.8C18.1124 8.9 18.1834 9.00833 18.2254 9.125C18.2667 9.24167 18.2874 9.36667 18.2874 9.5C18.2874 9.63333 18.2667 9.75833 18.2254 9.875C18.1834 9.99167 18.1124 10.1 18.0124 10.2L14.4124 13.8C14.1957 14.0167 13.9584 14.1123 13.7004 14.087C13.4417 14.0623 13.2207 13.9583 13.0374 13.775ZM2.7124 18.5C2.1624 18.5 1.6914 18.3043 1.2994 17.913C0.908069 17.521 0.712402 17.05 0.712402 16.5V2.5C0.712402 1.95 0.908069 1.479 1.2994 1.087C1.6914 0.695667 2.1624 0.5 2.7124 0.5H8.7124C8.99574 0.5 9.2334 0.595667 9.4254 0.787C9.61674 0.979 9.7124 1.21667 9.7124 1.5C9.7124 1.78333 9.61674 2.02067 9.4254 2.212C9.2334 2.404 8.99574 2.5 8.7124 2.5H2.7124V16.5H8.7124C8.99574 16.5 9.2334 16.596 9.4254 16.788C9.61674 16.9793 9.7124 17.2167 9.7124 17.5C9.7124 17.7833 9.61674 18.0207 9.4254 18.212C9.2334 18.404 8.99574 18.5 8.7124 18.5H2.7124Z" fill="#F8F8F8"/>
</svg>
