<svg width="167" height="16" viewBox="0 0 167 16" fill="none" xmlns="http://www.w3.org/2000/svg">
<path d="M0.6 1.02V15H7.02V13.86H2V1.02H0.6ZM22.518 8C22.518 3.82 19.538 0.86 15.598 0.86C11.678 0.86 8.67797 3.82 8.67797 8C8.67797 12.2 11.678 15.14 15.598 15.14C19.538 15.14 22.518 12.2 22.518 8ZM10.118 8C10.118 4.34 12.498 2.1 15.598 2.1C18.698 2.1 21.078 4.34 21.078 8C21.078 11.66 18.698 13.92 15.598 13.92C12.498 13.92 10.118 11.66 10.118 8ZM31.6597 0.86C27.7397 0.86 24.7397 3.82 24.7397 8C24.7397 12.2 27.7397 15.14 31.6597 15.14C35.4797 15.14 38.2397 12.3 38.4597 8.6V7.58H31.0997V8.72H36.9797C36.7597 11.9 34.5997 13.88 31.6597 13.88C28.5597 13.88 26.1797 11.62 26.1797 8C26.1797 4.38 28.5597 2.14 31.6597 2.14C33.8997 2.14 35.5997 3.3 36.3797 5.1H38.0197C37.0197 2.44 34.6597 0.86 31.6597 0.86ZM54.5242 8C54.5242 3.82 51.5442 0.86 47.6042 0.86C43.6842 0.86 40.6842 3.82 40.6842 8C40.6842 12.2 43.6842 15.14 47.6042 15.14C51.5442 15.14 54.5242 12.2 54.5242 8ZM42.1242 8C42.1242 4.34 44.5042 2.1 47.6042 2.1C50.7042 2.1 53.0842 4.34 53.0842 8C53.0842 11.66 50.7042 13.92 47.6042 13.92C44.5042 13.92 42.1242 11.66 42.1242 8ZM69.4542 0.86C65.5342 0.86 62.5342 3.82 62.5342 8C62.5342 12.2 65.5342 15.14 69.4542 15.14C73.2742 15.14 76.0342 12.3 76.2542 8.6V7.58H68.8942V8.72H74.7742C74.5542 11.9 72.3942 13.88 69.4542 13.88C66.3542 13.88 63.9742 11.62 63.9742 8C63.9742 4.38 66.3542 2.14 69.4542 2.14C71.6942 2.14 73.3942 3.3 74.1742 5.1H75.8142C74.8142 2.44 72.4542 0.86 69.4542 0.86ZM92.3188 8C92.3188 3.82 89.3388 0.86 85.3988 0.86C81.4788 0.86 78.4788 3.82 78.4788 8C78.4788 12.2 81.4788 15.14 85.3988 15.14C89.3388 15.14 92.3188 12.2 92.3188 8ZM79.9188 8C79.9188 4.34 82.2988 2.1 85.3988 2.1C88.4988 2.1 90.8788 4.34 90.8788 8C90.8788 11.66 88.4988 13.92 85.3988 13.92C82.2988 13.92 79.9188 11.66 79.9188 8ZM102.48 0.999999H95.1805V15H102.48V13.84H96.5805V8.54H101.88V7.38H96.5805V2.16H102.48V0.999999ZM114.279 11.32C114.279 6.12 106.599 8.6 106.599 4.56C106.599 2.94 107.959 2.04 109.599 2.06C111.539 2.08 112.479 3.28 112.639 4.26H114.159C113.919 2.34 112.319 0.86 109.659 0.86C106.959 0.86 105.179 2.44 105.179 4.6C105.179 9.86 112.859 7.26 112.859 11.38C112.859 12.82 111.719 13.96 109.779 13.96C107.519 13.96 106.659 12.56 106.539 11.4H105.059C105.139 13.54 106.979 15.14 109.779 15.14C112.739 15.14 114.279 13.22 114.279 11.32ZM132.053 15H133.453V1.02H132.053V7.3H124.473V1.02H123.073V15H124.473V8.46H132.053V15ZM144.247 0.999999H136.947V15H144.247V13.84H138.347V8.54H143.647V7.38H138.347V2.16H144.247V0.999999ZM154.825 5.08C154.825 6.78 153.805 8.02 151.525 8.02H148.705V2.2H151.505C153.865 2.2 154.825 3.32 154.825 5.08ZM147.305 1.02V15H148.705V9.16H151.285L154.745 15H156.425L152.825 9.06C155.185 8.62 156.265 7 156.265 5.08C156.265 2.78 154.745 1.02 151.505 1.02H147.305ZM166.644 0.999999H159.344V15H166.644V13.84H160.744V8.54H166.044V7.38H160.744V2.16H166.644V0.999999Z" fill="white"/>
</svg>
