<svg width="64" height="64" viewBox="0 0 64 64" fill="none" xmlns="http://www.w3.org/2000/svg">
<g clip-path="url(#clip0_327_231)">
<path d="M19.54 43.3203C26.9959 43.3203 33.04 37.2762 33.04 29.8203C33.04 22.3645 26.9959 16.3203 19.54 16.3203C12.0842 16.3203 6.04004 22.3645 6.04004 29.8203C6.04004 37.2762 12.0842 43.3203 19.54 43.3203Z" fill="#F4D7D9"/>
<path d="M42.1799 21.7902C42.1799 21.7902 37.8799 21.1902 35.3899 18.2002C29.9999 23.7902 21.8999 23.6902 21.8999 23.6902V29.8402C21.8999 32.5295 22.9682 35.1086 24.8698 37.0103C26.7715 38.9119 29.3506 39.9802 32.0399 39.9802C34.7292 39.9802 37.3083 38.9119 39.21 37.0103C41.1116 35.1086 42.1799 32.5295 42.1799 29.8402V21.8402" stroke="#B20B18" stroke-width="2" stroke-linecap="round" stroke-linejoin="round"/>
<path d="M21.8999 23.6902H19.8999V21.5402C19.8999 19.8409 20.2351 18.1584 20.8862 16.5889C21.5374 15.0195 22.4918 13.5938 23.6947 12.3937C24.8976 11.1936 26.3254 10.2425 27.8964 9.595C29.4674 8.94748 31.1507 8.61621 32.8499 8.62015C33.1935 8.61884 33.534 8.68537 33.8518 8.81595C34.1696 8.94652 34.4585 9.13857 34.7019 9.38106C34.9453 9.62355 35.1385 9.91172 35.2703 10.229C35.4021 10.5463 35.4699 10.8866 35.4699 11.2302V11.5802C36.641 11.6578 37.8044 11.8249 38.9499 12.0802C40.4105 12.403 41.7175 13.2138 42.6555 14.379C43.5935 15.5443 44.1065 16.9943 44.1099 18.4902" stroke="#B20B18" stroke-width="2" stroke-linecap="round" stroke-linejoin="round"/>
<path d="M28.3599 32.9297C29.3417 33.8946 30.6632 34.4353 32.0399 34.4353C33.4165 34.4353 34.738 33.8946 35.7199 32.9297" stroke="#B20B18" stroke-width="2" stroke-linecap="round" stroke-linejoin="round"/>
<path d="M21.8198 29.4204C21.0892 29.3772 20.4027 29.0566 19.9007 28.524C19.3987 27.9915 19.1191 27.2873 19.1191 26.5554C19.1191 25.8236 19.3987 25.1194 19.9007 24.5868C20.4027 24.0543 21.0892 23.7336 21.8198 23.6904" stroke="#B20B18" stroke-width="2" stroke-linecap="round" stroke-linejoin="round"/>
<path d="M42.1802 29.4196C42.5706 29.4426 42.9617 29.3857 43.3294 29.2521C43.697 29.1186 44.0335 28.9113 44.3181 28.643C44.6028 28.3747 44.8295 28.051 44.9845 27.6919C45.1396 27.3328 45.2195 26.9457 45.2195 26.5546C45.2195 26.1634 45.1396 25.7764 44.9845 25.4173C44.8295 25.0581 44.6028 24.7345 44.3181 24.4662C44.0335 24.1979 43.697 23.9906 43.3294 23.857C42.9617 23.7235 42.5706 23.6665 42.1802 23.6896" stroke="#B20B18" stroke-width="2" stroke-linecap="round" stroke-linejoin="round"/>
<path d="M27.25 43.5996C28.5736 44.7278 30.2609 45.3388 32 45.3196C33.8123 45.3084 35.5868 44.7999 37.13 43.8496" stroke="#B20B18" stroke-width="2" stroke-linecap="round" stroke-linejoin="round"/>
<path d="M11.3398 55.3903C11.3423 54.386 11.5894 53.3975 12.0598 52.5103C13.8198 49.0803 18.4698 46.7203 22.3198 45.2803" stroke="#B20B18" stroke-width="2" stroke-linecap="round" stroke-linejoin="round"/>
<path d="M27.25 43.6005C27.5269 43.4055 27.7544 43.1483 27.9142 42.8497C28.0739 42.551 28.1615 42.2191 28.17 41.8805L28.24 40.2305L28.4 40.5405" stroke="#B20B18" stroke-width="2" stroke-linecap="round" stroke-linejoin="round"/>
<path d="M35.6001 40.54L35.8401 42.25C35.8568 42.6205 35.9908 42.976 36.2226 43.2653C36.4545 43.5547 36.7722 43.763 37.1301 43.86" stroke="#B20B18" stroke-width="2" stroke-linecap="round" stroke-linejoin="round"/>
<path d="M41.6802 45.29C46.5202 47.09 52.6802 50.36 52.6802 55.39" stroke="#B20B18" stroke-width="2" stroke-linecap="round" stroke-linejoin="round"/>
<path d="M28.2398 40.2299C28.2398 40.2299 22.3198 39.6899 22.3198 45.2899C23.537 46.6422 25.0323 47.715 26.7032 48.4348C28.3741 49.1546 30.181 49.5043 31.9998 49.4599C33.8186 49.5043 35.6255 49.1546 37.2964 48.4348C38.9673 47.715 40.4627 46.6422 41.6798 45.2899C41.6798 39.6899 35.7598 40.2299 35.7598 40.2299" stroke="#B20B18" stroke-width="2" stroke-linecap="round" stroke-linejoin="round"/>
<path d="M28.3999 48.9902V55.3902" stroke="#B20B18" stroke-width="2" stroke-linecap="round" stroke-linejoin="round"/>
<path d="M35.6001 48.9902V55.3902" stroke="#B20B18" stroke-width="2" stroke-linecap="round" stroke-linejoin="round"/>
</g>
<defs>
<clipPath id="clip0_327_231">
<rect width="64" height="64" fill="white"/>
</clipPath>
</defs>
</svg>
